# xmcd
#
# Track frame offsets:
#	150
#	15639
#	32818
#	48651
#	67752
#	82255
#	98044
#	110947
#	128836
#	146022
#	159940
#	176181
#	192183
#
# Disc length: 2778 seconds
#
# Revision: 4
# Processed by: cddbd v1.5.2PL0 Copyright (c) Steve Scherf et al.
# Submitted via: EZCDAudioConverter 6.0.5.1
#
DISCID=b50ad80d
DTITLE=George Strait - Cold Beer Conversation
DYEAR=2015
DGENRE=Country
TTITLE0=It Was Love
TTITLE1=Cold Beer Conversation
TTITLE2=Let It Go
TTITLE3=Goin' Goin' Gone
TTITLE4=Something Going Down
TTITLE5=Take Me To Texas
TTITLE6=It Takes All Kinds
TTITLE7=Stop And Drink
TTITLE8=Everything I See
TTITLE9=Rock Paper Scissors
TTITLE10=Wish You Well
TTITLE11=Cheaper Than A Shrink
TTITLE12=Even When I Can't Feel It
EXTD=
EXTT0=
EXTT1=
EXTT2=
EXTT3=
EXTT4=
EXTT5=
EXTT6=
EXTT7=
EXTT8=
EXTT9=
EXTT10=
EXTT11=
EXTT12=
PLAYORDER=
